<svg width="28" height="28" viewBox="0 0 28 28" fill="none" xmlns="http://www.w3.org/2000/svg">
<path d="M7.04488 20.4165L4.70921 22.7519C4.37729 23.084 3.9955 23.1587 3.56383 22.9759C3.13236 22.7929 2.91663 22.4662 2.91663 21.9959V5.02555C2.91663 4.43618 3.12079 3.93734 3.52913 3.529C3.93746 3.12067 4.43631 2.9165 5.02567 2.9165H22.9743C23.5636 2.9165 24.0625 3.12067 24.4708 3.529C24.8791 3.93734 25.0833 4.43618 25.0833 5.02555V18.3075C25.0833 18.8968 24.8791 19.3957 24.4708 19.804C24.0625 20.2123 23.5636 20.4165 22.9743 20.4165H7.04488ZM8.16663 16.0415H15.1666C15.4145 16.0415 15.6223 15.9576 15.7899 15.7898C15.9577 15.622 16.0416 15.4141 16.0416 15.1662C16.0416 14.9181 15.9577 14.7103 15.7899 14.5429C15.6223 14.3753 15.4145 14.2915 15.1666 14.2915H8.16663C7.91871 14.2915 7.71095 14.3754 7.54333 14.5432C7.37553 14.711 7.29163 14.9189 7.29163 15.1668C7.29163 15.4149 7.37553 15.6227 7.54333 15.7901C7.71095 15.9577 7.91871 16.0415 8.16663 16.0415ZM8.16663 12.5415H19.8333C20.0812 12.5415 20.289 12.4576 20.4566 12.2898C20.6244 12.122 20.7083 11.9141 20.7083 11.6662C20.7083 11.4181 20.6244 11.2103 20.4566 11.0429C20.289 10.8753 20.0812 10.7915 19.8333 10.7915H8.16663C7.91871 10.7915 7.71095 10.8754 7.54333 11.0432C7.37553 11.211 7.29163 11.4189 7.29163 11.6668C7.29163 11.9149 7.37553 12.1227 7.54333 12.2901C7.71095 12.4577 7.91871 12.5415 8.16663 12.5415ZM8.16663 9.0415H19.8333C20.0812 9.0415 20.289 8.9576 20.4566 8.7898C20.6244 8.62199 20.7083 8.41413 20.7083 8.16621C20.7083 7.9181 20.6244 7.71034 20.4566 7.54292C20.289 7.37531 20.0812 7.2915 19.8333 7.2915H8.16663C7.91871 7.2915 7.71095 7.37541 7.54333 7.54321C7.37553 7.71102 7.29163 7.91888 7.29163 8.1668C7.29163 8.41491 7.37553 8.62267 7.54333 8.79009C7.71095 8.9577 7.91871 9.0415 8.16663 9.0415Z" fill="#4DB4FF"/>
</svg>
