<svg width="28" height="28" viewBox="0 0 28 28" fill="none" xmlns="http://www.w3.org/2000/svg">
<g clip-path="url(#clip0_1581_8347)">
<path d="M6.125 22.5322C5.87708 22.5322 5.66932 22.4485 5.50171 22.2808C5.33391 22.1131 5.25 21.905 5.25 21.657C5.25 21.4091 5.33391 21.2013 5.50171 21.0337C5.66932 20.8662 5.87708 20.7826 6.125 20.7826H7.35904V12.0772C7.35904 10.5082 7.8433 9.12092 8.81183 7.91537C9.78017 6.70982 11.0234 5.93874 12.5417 5.60216V4.87533C12.5417 4.47029 12.6833 4.12594 12.9667 3.84224C13.2499 3.55874 13.5939 3.41699 13.9986 3.41699C14.4034 3.41699 14.7478 3.55874 15.0319 3.84224C15.3162 4.12594 15.4583 4.47029 15.4583 4.87533V5.60216C16.9765 5.93874 18.2198 6.70982 19.1882 7.91537C20.1567 9.12092 20.641 10.5082 20.641 12.0772V20.7826H21.875C22.1229 20.7826 22.3307 20.8664 22.4984 21.034C22.6661 21.2018 22.75 21.4097 22.75 21.6578C22.75 21.9057 22.6661 22.1135 22.4984 22.2812C22.3307 22.4486 22.1229 22.5322 21.875 22.5322H6.125ZM13.998 25.808C13.4176 25.808 12.9213 25.6015 12.5093 25.1885C12.097 24.7755 11.891 24.279 11.891 23.6989H16.109C16.109 24.2808 15.9024 24.7778 15.4889 25.1899C15.0756 25.602 14.5785 25.808 13.998 25.808ZM9.10904 20.7826H18.891V12.0772C18.891 10.7265 18.4135 9.57378 17.4586 8.61887C16.5034 7.66375 15.3506 7.1862 14 7.1862C12.6493 7.1862 11.4965 7.66375 10.5414 8.61887C9.5865 9.57378 9.10904 10.7265 9.10904 12.0772V20.7826Z" fill="#8C8A8F"/>
<path d="M23.917 4C24.8835 4 25.667 3.2165 25.667 2.25C25.667 1.2835 24.8835 0.5 23.917 0.5C22.9505 0.5 22.167 1.2835 22.167 2.25C22.167 3.2165 22.9505 4 23.917 4Z" fill="#0065FF"/>
</g>
<defs>
<clipPath id="clip0_1581_8347">
<rect width="28" height="28" fill="white" transform="translate(0 0.5)"/>
</clipPath>
</defs>
</svg>
