<svg width="24" height="24" viewBox="0 0 24 24" fill="none" xmlns="http://www.w3.org/2000/svg">
<path d="M11 19.9404C9.168 19.6969 7.62667 18.8847 6.376 17.5039C5.12533 16.1232 4.5 14.4918 4.5 12.6096C4.5 11.5675 4.69458 10.6092 5.08375 9.73488C5.47275 8.86038 6.01025 8.08088 6.69625 7.39638L12 2.19238L17.3038 7.39638C17.8461 7.95138 18.3003 8.57347 18.6663 9.26263C19.0323 9.9518 19.2819 10.6945 19.4152 11.4906H17.9C17.7833 10.924 17.5875 10.388 17.3125 9.88288C17.0375 9.37772 16.6833 8.9168 16.25 8.50013L12 4.30013L7.75 8.50013C7.16667 9.05013 6.72917 9.67255 6.4375 10.3674C6.14583 11.0622 6 11.8096 6 12.6096C6 14.0596 6.47917 15.333 7.4375 16.4299C8.39583 17.5267 9.58333 18.1918 11 18.4251V19.9404ZM13.377 15.6559L12.902 14.5694C13.3097 14.3552 13.7333 14.1812 14.173 14.0474C14.6128 13.9134 15.0552 13.8464 15.5 13.8464C15.8705 13.8464 16.2384 13.8905 16.6038 13.9789C16.9693 14.0674 17.3238 14.1783 17.6673 14.3116C17.9801 14.445 18.2939 14.5632 18.6087 14.6664C18.9234 14.7697 19.2538 14.8214 19.6 14.8214C19.977 14.8214 20.3424 14.7611 20.6962 14.6406C21.0501 14.5201 21.3956 14.3746 21.7327 14.2041L22.2078 15.3001C21.8001 15.5143 21.3748 15.6867 20.9318 15.8174C20.4888 15.9482 20.0448 16.0136 19.6 16.0136C19.2295 16.0136 18.8616 15.9694 18.4962 15.8809C18.1307 15.7924 17.7762 15.6815 17.4327 15.5481C17.1199 15.4148 16.8061 15.2966 16.4913 15.1934C16.1766 15.0902 15.8462 15.0386 15.5 15.0386C15.123 15.0386 14.7592 15.0989 14.4087 15.2194C14.0581 15.3399 13.7142 15.4854 13.377 15.6559ZM13.377 18.4636L12.902 17.3771C13.3097 17.163 13.7333 16.9889 14.173 16.8549C14.6128 16.7209 15.0552 16.6539 15.5 16.6539C15.8705 16.6539 16.2384 16.6981 16.6038 16.7866C16.9693 16.8751 17.3238 16.986 17.6673 17.1194C17.9801 17.2527 18.2939 17.371 18.6087 17.4741C18.9234 17.5773 19.2538 17.6289 19.6 17.6289C19.977 17.6289 20.3424 17.5686 20.6962 17.4481C21.0501 17.3276 21.3956 17.1821 21.7327 17.0116L22.2078 18.1079C21.8001 18.3219 21.3748 18.4943 20.9318 18.6251C20.4888 18.756 20.0448 18.8214 19.6 18.8214C19.2295 18.8214 18.8616 18.7771 18.4962 18.6886C18.1307 18.6001 17.7762 18.4892 17.4327 18.3559C17.1199 18.2225 16.8061 18.1043 16.4913 18.0011C16.1766 17.898 15.8462 17.8464 15.5 17.8464C15.123 17.8464 14.7592 17.9066 14.4087 18.0271C14.0581 18.1476 13.7142 18.2931 13.377 18.4636ZM13.377 21.2711L12.902 20.1846C13.3097 19.9706 13.7333 19.7966 14.173 19.6626C14.6128 19.5286 15.0552 19.4616 15.5 19.4616C15.8705 19.4616 16.2384 19.5059 16.6038 19.5944C16.9693 19.6829 17.3238 19.7938 17.6673 19.9271C17.9801 20.0605 18.2939 20.1787 18.6087 20.2819C18.9234 20.385 19.2538 20.4366 19.6 20.4366C19.977 20.4366 20.3424 20.3764 20.6962 20.2559C21.0501 20.1354 21.3956 19.9899 21.7327 19.8194L22.2078 20.9154C21.8001 21.1295 21.3748 21.302 20.9318 21.4329C20.4888 21.5635 20.0448 21.6289 19.6 21.6289C19.2295 21.6289 18.8616 21.5847 18.4962 21.4964C18.1307 21.4079 17.7762 21.297 17.4327 21.1636C17.1199 21.0303 16.8061 20.912 16.4913 20.8089C16.1766 20.7055 15.8462 20.6539 15.5 20.6539C15.123 20.6539 14.7592 20.7141 14.4087 20.8346C14.0581 20.9551 13.7142 21.1006 13.377 21.2711Z" fill="#5F6368"/>
</svg>
