<svg width="24" height="24" viewBox="0 0 24 24" fill="none" xmlns="http://www.w3.org/2000/svg">
<path d="M11.9983 21.4997C9.85708 21.4997 8.07208 20.7643 6.64325 19.2935C5.21442 17.8225 4.5 15.9917 4.5 13.8012C4.5 12.8311 4.71992 11.8577 5.15975 10.881C5.59942 9.90448 6.14908 8.96732 6.80875 8.06948C7.46825 7.17165 8.18167 6.32715 8.949 5.53598C9.71633 4.74482 10.4288 4.05648 11.0865 3.47098C11.2135 3.35048 11.3561 3.26107 11.5143 3.20273C11.6724 3.1444 11.8343 3.11523 12 3.11523C12.1657 3.11523 12.3276 3.1444 12.4857 3.20273C12.6439 3.26107 12.7865 3.35048 12.9135 3.47098C13.5712 4.05648 14.2837 4.74482 15.051 5.53598C15.8183 6.32715 16.5318 7.17165 17.1913 8.06948C17.8509 8.96732 18.4006 9.90448 18.8403 10.881C19.2801 11.8577 19.5 12.8311 19.5 13.8012C19.5 15.9917 18.785 17.8225 17.355 19.2935C15.925 20.7643 14.1394 21.4997 11.9983 21.4997ZM12 19.9997C13.7333 19.9997 15.1667 19.4122 16.3 18.2372C17.4333 17.0622 18 15.5831 18 13.7997C18 12.5831 17.4958 11.2081 16.4875 9.67473C15.4792 8.1414 13.9833 6.4664 12 4.64973C10.0167 6.4664 8.52083 8.1414 7.5125 9.67473C6.50417 11.2081 6 12.5831 6 13.7997C6 15.5831 6.56667 17.0622 7.7 18.2372C8.83333 19.4122 10.2667 19.9997 12 19.9997ZM12.2463 18.846C12.4206 18.8293 12.5642 18.7641 12.677 18.6502C12.7898 18.5364 12.8462 18.3992 12.8462 18.2385C12.8462 18.0512 12.7847 17.9027 12.6617 17.793C12.5387 17.6833 12.3817 17.6368 12.1905 17.6535C11.5072 17.7035 10.7629 17.5032 9.95775 17.0527C9.15258 16.6021 8.65 15.8184 8.45 14.7017C8.41667 14.5312 8.34517 14.3972 8.2355 14.2997C8.126 14.2022 7.99558 14.1535 7.84425 14.1535C7.66225 14.1535 7.51067 14.2218 7.3895 14.3585C7.26833 14.495 7.2295 14.6702 7.273 14.8842C7.5435 16.3369 8.19742 17.3754 9.23475 17.9997C10.2719 18.6241 11.2758 18.9062 12.2463 18.846Z" fill="#5F6368"/>
</svg>
