<svg width="24" height="24" viewBox="0 0 24 24" fill="none" xmlns="http://www.w3.org/2000/svg">
<path d="M12.0286 20.5001C9.65939 20.5001 7.65048 19.6758 6.00181 18.0271C4.35314 16.3783 3.52881 14.3693 3.52881 12.0001C3.52881 10.0271 4.13931 8.27329 5.36031 6.73862C6.58148 5.20396 8.20806 4.21487 10.2401 3.77137C10.4504 3.71871 10.6356 3.72379 10.7958 3.78663C10.9561 3.84946 11.0863 3.94304 11.1863 4.06737C11.2863 4.19187 11.3453 4.34287 11.3633 4.52037C11.3811 4.69787 11.3395 4.87513 11.2383 5.05213C11.0318 5.42779 10.8786 5.81879 10.7786 6.22512C10.6786 6.63162 10.6286 7.05662 10.6286 7.50012C10.6286 9.14112 11.2016 10.5347 12.3478 11.6809C13.494 12.827 14.8876 13.4001 16.5286 13.4001C17.0197 13.4001 17.489 13.338 17.9363 13.2136C18.3838 13.0893 18.7755 12.945 19.1113 12.7809C19.2755 12.7092 19.4357 12.6839 19.5921 12.7049C19.7486 12.726 19.8826 12.7783 19.9941 12.8616C20.1159 12.945 20.2066 13.0588 20.2661 13.2031C20.3257 13.3473 20.3325 13.5168 20.2863 13.7116C19.9311 15.6783 18.9744 17.3014 17.4161 18.5809C15.8577 19.8604 14.0619 20.5001 12.0286 20.5001Z" fill="#818AFF"/>
</svg>
