<svg width="121" height="120" viewBox="0 0 121 120" fill="none" xmlns="http://www.w3.org/2000/svg">
<path d="M97.0001 107.289L55.4238 65.4614C51.943 65.8205 48.5822 66.6443 45.3413 67.9326C42.1013 69.221 39.183 70.8943 36.5863 72.9526C35.2855 73.8626 33.853 74.3385 32.2888 74.3801C30.7247 74.4218 29.4105 73.8847 28.3463 72.7689C27.2313 71.6539 26.728 70.2985 26.8363 68.7026C26.9455 67.106 27.6251 65.8272 28.8751 64.8664C31.3368 62.8722 34.0468 61.1235 37.0051 59.6201C39.9634 58.1168 43.0326 56.9935 46.2126 56.2501L31.4038 41.4426C28.7247 42.6409 25.9955 44.1105 23.2163 45.8514C20.4372 47.5914 17.8172 49.5001 15.3563 51.5776C14.1063 52.5901 12.6909 53.1122 11.1101 53.1439C9.53009 53.1764 8.20801 52.6347 7.14384 51.5189C6.02884 50.4039 5.51301 49.0693 5.59634 47.5151C5.67967 45.9601 6.33051 44.6764 7.54884 43.6639C9.95884 41.523 12.4826 39.5484 15.1201 37.7401C17.7584 35.9326 20.4172 34.3976 23.0963 33.1351L14.7501 24.7889C14.0576 24.0964 13.7034 23.2259 13.6876 22.1776C13.6718 21.1301 14.0259 20.2443 14.7501 19.5201C15.4743 18.7951 16.3526 18.4326 17.3851 18.4326C18.4168 18.4326 19.2951 18.7951 20.0201 19.5201L102.394 101.894C103.17 102.67 103.558 103.569 103.558 104.591C103.558 105.614 103.17 106.513 102.394 107.289C101.619 107.981 100.72 108.347 99.6976 108.389C98.6751 108.431 97.7759 108.064 97.0001 107.289ZM60.5001 103.558C57.6734 103.558 55.2838 102.569 53.3313 100.591C51.3797 98.6139 50.4038 96.2372 50.4038 93.4614C50.4038 90.6347 51.3797 88.2455 53.3313 86.2939C55.2838 84.3422 57.6734 83.3664 60.5001 83.3664C63.3268 83.3664 65.7163 84.3422 67.6688 86.2939C69.6205 88.2455 70.5964 90.6347 70.5964 93.4614C70.5964 96.2372 69.6205 98.6139 67.6688 100.591C65.7163 102.569 63.3268 103.558 60.5001 103.558ZM93.2788 71.9714C92.3305 72.9197 91.2247 73.3814 89.9614 73.3564C88.6989 73.3305 87.593 72.843 86.6439 71.8939L85.4426 70.6926L84.2401 69.4901L76.0876 61.3376C75.1959 60.446 75.0434 59.5293 75.6301 58.5876C76.2168 57.6451 77.1509 57.3822 78.4326 57.7989C81.0609 58.5872 83.5659 59.6143 85.9476 60.8801C88.3284 62.146 90.5768 63.6155 92.6926 65.2889C93.7759 66.1347 94.3818 67.2226 94.5101 68.5526C94.6376 69.8835 94.2272 71.023 93.2788 71.9714ZM113.904 51.5189C112.808 52.6664 111.475 53.221 109.904 53.1826C108.334 53.1443 106.908 52.6026 105.625 51.5576C99.5293 46.321 92.6397 42.2522 84.9564 39.3514C77.2739 36.4505 69.1218 35.0001 60.5001 35.0001C58.7501 35.0001 57.0384 35.0626 55.3651 35.1876C53.6926 35.3126 52.0709 35.5001 50.5001 35.7501C48.9618 36.0193 47.5676 35.6939 46.3176 34.7739C45.0676 33.8539 44.308 32.6247 44.0388 31.0864C43.7697 29.548 44.1076 28.1539 45.0526 26.9039C45.9984 25.6539 47.2405 24.8943 48.7788 24.6251C50.5547 24.3559 52.4151 24.1589 54.3601 24.0339C56.3059 23.9089 58.3526 23.8464 60.5001 23.8464C70.7243 23.8464 80.3284 25.5918 89.3126 29.0826C98.2968 32.5726 106.343 37.3914 113.451 43.5389C114.701 44.603 115.368 45.9201 115.451 47.4901C115.535 49.0609 115.019 50.4039 113.904 51.5189Z" fill="#848287"/>
</svg>
