<svg width="280" height="280" viewBox="0 0 280 280" fill="none" xmlns="http://www.w3.org/2000/svg">
<mask id="mask0_192_2359" style="mask-type:luminance" maskUnits="userSpaceOnUse" x="33" y="0" width="214" height="280">
<path d="M246.4 0H33.6V280H246.4V0Z" fill="white"/>
</mask>
<g mask="url(#mask0_192_2359)">
<path d="M218.4 140C218.4 194.567 184.214 224.933 140 224.933C95.5584 224.933 61.6 194.338 61.6 140C61.6 85.4325 95.5584 55.0664 140 55.0664C184.214 55.0664 218.4 85.4325 218.4 140ZM178.744 140C178.744 107.122 164.157 89.3135 140 89.3135C115.842 89.3135 101.255 107.122 101.255 140C101.255 172.877 115.842 190.685 140 190.685C164.157 190.685 178.744 172.877 178.744 140Z" fill="#008CFF"/>
<path d="M53.1683 104.701L48.5333 102.666L50.5681 107.301L50.5689 107.303L50.5729 107.311L50.5902 107.351C50.6057 107.388 50.6292 107.441 50.6602 107.514C50.7222 107.658 50.814 107.874 50.9315 108.155C51.1665 108.715 51.5038 109.535 51.9093 110.563C52.7206 112.62 53.8026 115.502 54.8836 118.799C57.065 125.449 59.1691 133.571 59.1691 139.999C59.1691 146.427 57.065 154.549 54.8836 161.2C53.8026 164.497 52.7206 167.379 51.9093 169.435C51.5038 170.462 51.1665 171.283 50.9315 171.844C50.814 172.124 50.7222 172.34 50.6602 172.485C50.6292 172.557 50.6057 172.611 50.5902 172.646L50.5729 172.687L50.5689 172.696L50.5682 172.698L48.5333 177.333L53.1683 175.298L53.1703 175.297L53.1795 175.292L53.2189 175.276C53.2548 175.261 53.3091 175.236 53.3812 175.206C53.5257 175.144 53.7415 175.053 54.0221 174.934C54.5832 174.699 55.4034 174.362 56.4312 173.957C58.488 173.146 61.3696 172.063 64.666 170.982C71.3169 168.801 79.4386 166.697 85.8667 166.697C92.2947 166.697 100.416 168.801 107.067 170.982C110.364 172.063 113.246 173.146 115.302 173.957C116.33 174.362 117.15 174.699 117.711 174.934C117.992 175.053 118.208 175.144 118.352 175.206C118.424 175.236 118.478 175.261 118.514 175.276L118.554 175.292L118.563 175.297L118.565 175.298L123.2 177.333L121.165 172.698L121.164 172.696L121.16 172.687L121.143 172.646C121.128 172.611 121.104 172.557 121.073 172.485C121.011 172.34 120.92 172.124 120.802 171.844C120.566 171.283 120.229 170.462 119.824 169.435C119.013 167.379 117.93 164.497 116.85 161.2C114.668 154.549 112.565 146.427 112.565 139.999C112.565 133.571 114.668 125.449 116.85 118.799C117.93 115.502 119.013 112.62 119.824 110.563C120.229 109.535 120.566 108.715 120.802 108.155C120.92 107.874 121.011 107.658 121.073 107.514C121.095 107.461 121.114 107.419 121.128 107.386L121.143 107.351L121.16 107.311L121.164 107.303L121.165 107.301L123.2 102.666L118.565 104.701H118.563L118.554 104.705L118.514 104.722C118.478 104.738 118.424 104.762 118.352 104.793C118.208 104.855 117.992 104.946 117.711 105.065C117.15 105.299 116.33 105.637 115.302 106.042C113.246 106.853 110.364 107.936 107.067 109.016C100.416 111.197 92.2947 113.301 85.8667 113.301C79.4386 113.301 71.3169 111.197 64.666 109.016C61.3696 107.936 58.488 106.853 56.4312 106.042C55.4034 105.637 54.5832 105.299 54.0221 105.065C53.7415 104.946 53.5257 104.855 53.3812 104.793C53.3091 104.762 53.2548 104.738 53.2189 104.722L53.1795 104.705L53.1703 104.701H53.1683Z" fill="#80CAFF" stroke="white" stroke-width="5"/>
<path d="M139.226 138.985C139.891 139.408 140.491 139.755 140.933 140C140.491 140.244 139.891 140.592 139.226 141.013C137.878 141.872 136.232 143.066 135.156 144.366C134.082 145.663 133.096 147.647 132.388 149.272C132.067 150.009 131.798 150.682 131.6 151.2C131.402 150.682 131.133 150.009 130.812 149.272C130.104 147.647 129.118 145.663 128.044 144.366C126.968 143.066 125.322 141.872 123.974 141.013C123.309 140.592 122.709 140.244 122.267 140C122.709 139.755 123.309 139.408 123.974 138.985C125.322 138.127 126.968 136.934 128.044 135.634C129.118 134.336 130.104 132.353 130.812 130.727C131.133 129.99 131.402 129.317 131.6 128.8C131.798 129.317 132.067 129.99 132.388 130.727C133.096 132.353 134.082 134.336 135.156 135.634C136.232 136.934 137.878 138.127 139.226 138.985Z" fill="#80CAFF"/>
<path d="M49.2072 128.126C49.6525 128.392 50.0639 128.62 50.3998 128.799C50.0639 128.978 49.6525 129.206 49.2072 129.472C48.0829 130.145 46.6993 131.087 45.7899 132.119C44.8826 133.151 44.0562 134.716 43.4658 135.989C43.26 136.433 43.0803 136.847 42.9331 137.199C42.7858 136.847 42.6061 136.433 42.4003 135.989C41.8099 134.716 40.9835 133.151 40.0762 132.119C39.1668 131.087 37.7832 130.145 36.6589 129.472C36.2136 129.206 35.8022 128.978 35.4664 128.799C35.8022 128.62 36.2136 128.392 36.6589 128.126C37.7832 127.454 39.1668 126.511 40.0762 125.479C40.9835 124.448 41.8099 122.882 42.4003 121.61C42.6061 121.166 42.7858 120.751 42.9331 120.399C43.0803 120.751 43.26 121.166 43.4658 121.61C44.0562 122.882 44.8826 124.448 45.7899 125.479C46.6993 126.511 48.0829 127.454 49.2072 128.126Z" fill="#008CFF"/>
<path d="M100.8 100.8C100.757 100.692 100.712 100.58 100.664 100.465C100.339 99.6801 99.876 98.6964 99.3599 98.0403C98.8409 97.3823 98.0616 96.7915 97.4419 96.3752C97.3093 96.2884 97.1843 96.2072 97.0667 96.1335C97.1843 96.0597 97.3093 95.9785 97.4419 95.8908C98.0616 95.4755 98.8409 94.8847 99.3599 94.2257C99.876 93.5705 100.339 92.5856 100.664 91.802C100.712 91.686 100.757 91.5739 100.8 91.4668C100.843 91.5739 100.888 91.686 100.936 91.802C101.261 92.5856 101.724 93.5705 102.24 94.2257C102.759 94.8847 103.538 95.4755 104.158 95.8908C104.291 95.9785 104.416 96.0597 104.533 96.1335C104.416 96.2072 104.291 96.2884 104.158 96.3752C103.538 96.7915 102.759 97.3823 102.24 98.0403C101.724 98.6964 101.261 99.6801 100.936 100.465C100.888 100.58 100.843 100.692 100.8 100.8Z" fill="white"/>
<path d="M49.4666 194.133C49.4135 194.003 49.3567 193.868 49.2968 193.73C48.8903 192.789 48.3117 191.608 47.6663 190.82C47.0184 190.032 46.0441 189.321 45.2681 188.823C45.104 188.718 44.9465 188.62 44.7999 188.533C44.9465 188.445 45.104 188.347 45.2681 188.241C46.0441 187.744 47.0184 187.034 47.6663 186.244C48.3117 185.457 48.8903 184.275 49.2968 183.335C49.3567 183.196 49.4135 183.061 49.4666 182.933C49.5198 183.061 49.5764 183.196 49.6364 183.335C50.0429 184.275 50.6215 185.457 51.2669 186.244C51.9148 187.034 52.8891 187.744 53.6651 188.241C53.8292 188.347 53.9867 188.445 54.1333 188.533C53.9867 188.62 53.8292 188.718 53.6651 188.823C52.8891 189.321 51.9148 190.032 51.2669 190.82C50.6215 191.608 50.0429 192.789 49.6364 193.73C49.5764 193.868 49.5198 194.003 49.4666 194.133Z" fill="#80CAFF"/>
</g>
</svg>
