<svg width="28" height="28" viewBox="0 0 28 28" fill="none" xmlns="http://www.w3.org/2000/svg">
<path d="M12.7079 25.5837C12.31 25.5837 11.9664 25.4516 11.6771 25.1876C11.3876 24.9237 11.2114 24.5988 11.1486 24.2128L10.8637 22.0297C10.5512 21.9251 10.2307 21.7786 9.90232 21.5902C9.5741 21.4015 9.28058 21.1996 9.02178 20.9844L7.00024 21.8436C6.63371 22.0052 6.26543 22.0209 5.8954 21.8906C5.52518 21.7605 5.2376 21.5242 5.03265 21.1818L3.71782 18.9022C3.51288 18.5597 3.45386 18.1974 3.54078 17.8151C3.6275 17.433 3.82642 17.1178 4.13753 16.8695L5.8852 15.557C5.85836 15.3836 5.83931 15.2094 5.82803 15.0344C5.81675 14.8594 5.81111 14.685 5.81111 14.5114C5.81111 14.3455 5.81675 14.177 5.82803 14.0057C5.83931 13.8344 5.85836 13.647 5.8852 13.4436L4.13753 12.1311C3.82642 11.8828 3.62935 11.5657 3.54632 11.1797C3.46329 10.7939 3.52425 10.4297 3.7292 10.0871L5.03265 7.84128C5.2376 7.50626 5.52518 7.27185 5.8954 7.13808C6.26543 7.0041 6.63371 7.01791 7.00024 7.17949L9.01041 8.02766C9.29177 7.80483 9.59208 7.60105 9.91136 7.41633C10.2306 7.2316 10.5444 7.08314 10.8526 6.97095L11.1486 4.78783C11.2114 4.40185 11.3876 4.07694 11.6771 3.81308C11.9664 3.54902 12.31 3.41699 12.7079 3.41699H15.2926C15.6904 3.41699 16.034 3.54902 16.3234 3.81308C16.6129 4.07694 16.7891 4.40185 16.8519 4.78783L17.1368 6.98203C17.4868 7.1092 17.8035 7.25766 18.0868 7.42741C18.3703 7.59716 18.6564 7.79724 18.9452 8.02766L21.0116 7.17949C21.3779 7.01791 21.7462 7.0041 22.1164 7.13808C22.4867 7.27185 22.7742 7.50626 22.9789 7.84128L24.2827 10.0985C24.4876 10.4409 24.5466 10.8033 24.4597 11.1855C24.373 11.5676 24.1741 11.8828 23.8629 12.1311L22.0704 13.4772C22.1122 13.6656 22.135 13.8417 22.1389 14.0057C22.1426 14.1694 22.1444 14.3343 22.1444 14.5003C22.1444 14.6588 22.1407 14.82 22.1331 14.9839C22.1257 15.1476 22.0989 15.335 22.0526 15.5459L23.8113 16.8695C24.1224 17.1178 24.3233 17.433 24.4139 17.8151C24.5043 18.1974 24.4471 18.5597 24.2421 18.9022L22.9206 21.1705C22.7158 21.5131 22.4265 21.7494 22.0526 21.8795C21.6787 22.0096 21.3084 21.9938 20.9419 21.8322L18.9452 20.973C18.6564 21.2034 18.3617 21.4072 18.0611 21.5843C17.7605 21.7617 17.4524 21.9064 17.1368 22.0186L16.8519 24.2128C16.7891 24.5988 16.6129 24.9237 16.3234 25.1876C16.034 25.4516 15.6904 25.5837 15.2926 25.5837H12.7079ZM12.8336 23.8337H15.1267L15.5461 20.7084C16.1415 20.5529 16.6855 20.3319 17.1782 20.0455C17.6712 19.7589 18.1465 19.3905 18.6042 18.9404L21.5028 20.1587L22.6517 18.1753L20.1209 16.2684C20.2181 15.9662 20.2842 15.67 20.3192 15.3797C20.3544 15.0896 20.372 14.7965 20.372 14.5003C20.372 14.1966 20.3544 13.9035 20.3192 13.6209C20.2842 13.3382 20.2181 13.0495 20.1209 12.7547L22.6738 10.8253L21.5252 8.84199L18.5928 10.0781C18.2024 9.6608 17.7346 9.29213 17.1896 8.97208C16.6444 8.65202 16.0928 8.4254 15.535 8.2922L15.1669 5.16699H12.8517L12.4655 8.28112C11.8703 8.4217 11.3207 8.63705 10.8167 8.92716C10.3125 9.21746 9.83154 9.59138 9.37382 10.0489L6.47524 8.84199L5.32665 10.8253L7.84607 12.7031C7.74885 12.98 7.68079 13.2679 7.6419 13.567C7.60302 13.866 7.58357 14.1809 7.58357 14.5114C7.58357 14.8151 7.60302 15.1128 7.6419 15.4045C7.68079 15.6962 7.74515 15.9841 7.83499 16.2684L5.32665 18.1753L6.47524 20.1587L9.36274 18.9337C9.80549 19.3883 10.2789 19.7607 10.7829 20.051C11.2871 20.3411 11.8442 20.564 12.4544 20.7195L12.8336 23.8337ZM14.0137 18.0003C14.9843 18.0003 15.8103 17.6597 16.4917 16.9783C17.173 16.297 17.5137 15.471 17.5137 14.5003C17.5137 13.5297 17.173 12.7037 16.4917 12.0223C15.8103 11.341 14.9843 11.0003 14.0137 11.0003C13.0309 11.0003 12.2019 11.341 11.5266 12.0223C10.8513 12.7037 10.5137 13.5297 10.5137 14.5003C10.5137 15.471 10.8513 16.297 11.5266 16.9783C12.2019 17.6597 13.0309 18.0003 14.0137 18.0003Z" fill="#9D9CA0"/>
</svg>
