<svg width="300" height="300" viewBox="0 0 300 300" fill="none" xmlns="http://www.w3.org/2000/svg">
<rect width="300" height="300" fill="white"/>
<path d="M119.823 150.369C119.823 177.752 102.638 192.989 80.4117 192.989C58.0707 192.989 41 177.637 41 150.369C41 122.988 58.0707 107.75 80.4117 107.75C102.638 107.75 119.823 122.988 119.823 150.369ZM99.8881 150.369C99.8881 133.872 92.5557 124.935 80.4117 124.935C68.2673 124.935 60.9349 133.872 60.9349 150.369C60.9349 166.868 68.2673 175.804 80.4117 175.804C92.5557 175.804 99.8881 166.868 99.8881 150.369ZM176.191 133.528C175.733 127.456 171.265 123.904 163.245 123.904C155.339 123.904 151.33 127.341 151.215 132.038C151.101 137.194 156.142 139.715 163.589 141.319L170.806 143.037C186.732 146.589 196.011 154.494 196.126 167.784C196.011 183.48 183.867 192.989 163.245 192.989C142.623 192.989 129.218 183.594 128.874 164.576H147.663C148.122 172.596 154.079 176.72 163.016 176.72C171.265 176.72 176.191 173.054 176.306 167.784C176.191 162.972 171.952 160.452 162.786 158.389L154.079 156.327C139.758 153.005 131.051 145.902 131.051 133.413C130.936 118.061 144.57 107.75 163.359 107.75C182.492 107.75 194.751 118.176 194.981 133.528H176.191ZM239.777 108.896H259.024V166.295C259.024 182.449 246.995 192.989 229.466 192.989C214.113 192.989 201.74 185.084 201.855 167.44H221.331C221.56 173.971 224.997 177.522 230.611 177.522C236.454 177.522 239.777 173.742 239.777 166.295V108.896Z" fill="#008CFF"/>
<path d="M34.7273 132.875L32.4312 131.867L33.4392 134.163L33.4392 134.164L33.4396 134.164L33.4415 134.169L33.4501 134.189C33.4578 134.206 33.4694 134.233 33.4848 134.269C33.5155 134.34 33.561 134.447 33.6192 134.586C33.7356 134.864 33.9027 135.271 34.1036 135.78C34.5055 136.798 35.0415 138.226 35.577 139.859C36.6577 143.154 37.7 147.177 37.7 150.362C37.7 153.546 36.6577 157.569 35.577 160.864C35.0415 162.497 34.5055 163.925 34.1036 164.944C33.9027 165.453 33.7356 165.859 33.6192 166.137C33.561 166.276 33.5155 166.383 33.4848 166.455C33.4694 166.49 33.4578 166.517 33.4501 166.535L33.4415 166.555L33.4396 166.559L33.4392 166.56L32.4312 168.856L34.7273 167.848L34.7283 167.848L34.7328 167.846L34.7524 167.837C34.7701 167.83 34.797 167.818 34.8328 167.803C34.9043 167.772 35.0112 167.726 35.1502 167.668C35.4282 167.552 35.8345 167.385 36.3437 167.184C37.3626 166.782 38.7901 166.246 40.4231 165.71C43.7179 164.63 47.7413 163.587 50.9257 163.587C54.1101 163.587 58.1334 164.63 61.4281 165.71C63.0612 166.246 64.489 166.782 65.5077 167.184C66.0168 167.385 66.4232 167.552 66.7012 167.668C66.84 167.726 66.9472 167.772 67.0187 167.803C67.0543 167.818 67.0813 167.83 67.0989 167.837L67.1185 167.846L67.1232 167.848L67.1239 167.848L69.4202 168.856L68.4121 166.56L68.4117 166.559L68.4097 166.555L68.4011 166.535C68.3937 166.517 68.382 166.49 68.3667 166.455C68.3358 166.383 68.2905 166.276 68.2322 166.137C68.1157 165.859 67.9487 165.453 67.7477 164.944C67.3461 163.925 66.8099 162.497 66.2745 160.864C65.1937 157.569 64.1515 153.546 64.1515 150.362C64.1515 147.177 65.1937 143.154 66.2745 139.859C66.8099 138.226 67.3461 136.798 67.7477 135.78C67.9487 135.271 68.1157 134.864 68.2322 134.586C68.2905 134.447 68.3358 134.34 68.3667 134.269C68.3777 134.243 68.3867 134.222 68.3937 134.206L68.4011 134.189L68.4097 134.169L68.4117 134.164L68.4121 134.164V134.163L69.4202 131.867L67.1243 132.875L67.1232 132.876L67.1185 132.878L67.0989 132.886C67.0813 132.894 67.0543 132.905 67.0187 132.921C66.9472 132.952 66.84 132.997 66.7012 133.055C66.4232 133.172 66.0168 133.339 65.5077 133.539C64.489 133.941 63.0612 134.478 61.4281 135.013C58.1334 136.094 54.1101 137.136 50.9257 137.136C47.7413 137.136 43.7179 136.094 40.4231 135.013C38.7901 134.478 37.3626 133.941 36.3437 133.539C35.8345 133.339 35.4282 133.172 35.1502 133.055C35.0112 132.997 34.9043 132.952 34.8328 132.921C34.797 132.905 34.7701 132.894 34.7524 132.886L34.7328 132.878L34.7283 132.876L34.7274 132.875L34.7273 132.875Z" fill="#80CAFF" stroke="white" stroke-width="3"/>
<path d="M73.5082 144.944C73.5082 144.944 74.3705 147.258 75.3618 148.359C76.3528 149.461 78.4356 150.419 78.4356 150.419C78.4356 150.419 76.3528 151.377 75.3618 152.479C74.3705 153.58 73.5082 155.894 73.5082 155.894C73.5082 155.894 72.6459 153.58 71.6546 152.479C70.6636 151.377 68.5808 150.419 68.5808 150.419C68.5808 150.419 70.6636 149.461 71.6546 148.359C72.6459 147.258 73.5082 144.944 73.5082 144.944Z" fill="#80CAFF"/>
<path d="M27.5196 146.508C27.5196 146.508 28.1356 148.161 28.8435 148.947C29.5515 149.734 31.0391 150.418 31.0391 150.418C31.0391 150.418 29.5515 151.103 28.8435 151.89C28.1356 152.676 27.5196 154.329 27.5196 154.329C27.5196 154.329 26.9036 152.676 26.1956 151.89C25.4876 151.103 24 150.418 24 150.418C24 150.418 25.4876 149.734 26.1956 148.947C26.9036 148.161 27.5196 146.508 27.5196 146.508Z" fill="#008CFF"/>
<path d="M58.5697 125C58.5697 125 58.9393 125.992 59.364 126.464C59.7891 126.936 60.6815 127.346 60.6815 127.346C60.6815 127.346 59.7891 127.757 59.364 128.229C58.9393 128.701 58.5697 129.693 58.5697 129.693C58.5697 129.693 58.2002 128.701 57.7755 128.229C57.3504 127.757 56.458 127.346 56.458 127.346C56.458 127.346 57.3504 126.936 57.7755 126.464C58.2002 125.992 58.5697 125 58.5697 125Z" fill="white"/>
<path d="M32.3686 170.754C32.3686 170.754 32.7382 171.746 33.163 172.218C33.5877 172.69 34.4803 173.1 34.4803 173.1C34.4803 173.1 33.5877 173.511 33.163 173.983C32.7382 174.455 32.3686 175.447 32.3686 175.447C32.3686 175.447 31.999 174.455 31.5742 173.983C31.1494 173.511 30.2568 173.1 30.2568 173.1C30.2568 173.1 31.1494 172.69 31.5742 172.218C31.999 171.746 32.3686 170.754 32.3686 170.754Z" fill="#80CAFF"/>
</svg>
